HIERARCHY
ROOT Hips
{
   OFFSET 0.00000 0.00000 0.00000
   CHANNELS 6 Xposition Yposition Zposition Zrotation Xrotation Yrotation
   JOINT Spine
   {
      OFFSET 0.000000 14.268601 0.000000
      CHANNELS 3 Zrotation Xrotation Yrotation
      JOINT Spine1
      {
         OFFSET -0.000000 30.788881 0.153192
         CHANNELS 3 Zrotation Xrotation Yrotation
         JOINT HEad
         {
            OFFSET 0.000000 10.480993 0.013608
            CHANNELS 3 Zrotation Xrotation Yrotation
            End Site
            {
               OFFSET -0.348000 15.329041 3.016740
            }
         }
         JOINT LeftShoulder1
         {
            OFFSET 10.788001 -0.434700 -0.264000
            CHANNELS 3 Zrotation Xrotation Yrotation
            JOINT LeftArm
            {
               OFFSET 12.339240 -0.004056 0.386544
               CHANNELS 3 Zrotation Xrotation Yrotation
               JOINT LeftForeArm
               {
                  OFFSET 39.320280 0.118968 -1.709208
                  CHANNELS 3 Zrotation Xrotation Yrotation
                  JOINT LeftHand
                  {
                     OFFSET 33.077163 0.102432 1.226592
                     CHANNELS 3 Zrotation Xrotation Yrotation
                     End Site
                     {
                        OFFSET 20.093162 -0.720000 1.803492
                     }
                  }
               }
            }
         }
         JOINT RightShoulder
         {
            OFFSET -10.788001 -0.434700 -0.264000
            CHANNELS 3 Zrotation Xrotation Yrotation
            JOINT RightArm
            {
               OFFSET -12.339240 -0.004056 0.386544
               CHANNELS 3 Zrotation Xrotation Yrotation
               JOINT RightForeArm
               {
                  OFFSET -39.476518 0.118968 -1.709208
                  CHANNELS 3 Zrotation Xrotation Yrotation
                  JOINT RightHand
                  {
                     OFFSET -32.990522 0.102432 1.226592
                     CHANNELS 3 Zrotation Xrotation Yrotation
                     End Site
                     {
                        OFFSET -19.957442 -0.720000 1.803492
                     }
                  }
               }
            }
         }
      }
   }
   JOINT LeftUpLeg
   {
      OFFSET 10.734961 -10.400485 0.121980
      CHANNELS 3 Zrotation Xrotation Yrotation
      JOINT LeftLeg
      {
         OFFSET 0.000000 -53.307237 1.647240
         CHANNELS 3 Zrotation Xrotation Yrotation
         JOINT LeftFoot
         {
            OFFSET -0.304260 -50.510883 -1.752708
            CHANNELS 3 Zrotation Xrotation Yrotation
            JOINT LeftToes
            {
               OFFSET -0.048000 -5.298108 10.198920
               CHANNELS 3 Zrotation Xrotation Yrotation
               End Site
               {
                  OFFSET 0.096000 -0.056940 11.735748
               }
            }
         }
      }
   }
   JOINT RightUpLeg
   {
      OFFSET -10.734961 -10.400485 0.121980
      CHANNELS 3 Zrotation Xrotation Yrotation
      JOINT RightLeg
      {
         OFFSET 0.000000 -53.307237 1.647240
         CHANNELS 3 Zrotation Xrotation Yrotation
         JOINT RightFoot
         {
            OFFSET 0.304260 -50.510883 -1.752708
            CHANNELS 3 Zrotation Xrotation Yrotation
            JOINT RightToes
            {
               OFFSET 0.048000 -5.298108 10.198920
               CHANNELS 3 Zrotation Xrotation Yrotation
               End Site
               {
                  OFFSET -0.096000 -0.164940 11.735748
               }
            }
         }
      }
   }
}
MOTION
Frames: 15
Frame Time: 0.016670
1.484841 53.310970 -138.237436 -11.145990 31.218104 -12.546464 10.974833 26.732778 162.298067 9.632304 3.416811 -140.019862 -27.350507 23.884152 23.660578 -20.377714 -70.060536 28.676645 -69.842195 -17.895512 -33.827926 -45.948820 62.354436 -18.332019 -16.346487 -27.782349 -66.527381 223.762789 307.244749 174.647500 156.795380 59.069983 278.430175 -77.272170 16.584259 96.530647 -42.659825 1.368933 27.979926 88.829014 -50.945763 76.837449 31.835652 26.903844 76.133455 -28.858280 12.495630 4.660784 29.844095 -60.554360 -55.806535 122.516327 -84.462085 240.100356 -122.296668 226.861851 88.681940 -119.399479 161.822672 18.014685 45.847754 -40.877494 -62.735820
-0.369078 54.527039 -135.954473 -10.909801 30.956261 -13.391450 15.230919 16.775407 162.627228 13.266112 3.612660 -136.764730 -30.699262 22.955803 24.419303 -10.109173 -77.551990 41.095387 -65.571373 -11.233204 -26.699238 -40.814096 67.813062 -20.730794 -14.745919 -18.474847 -66.708962 232.622200 306.212899 183.441997 154.454264 57.078047 282.296418 -72.225077 22.713644 97.612221 -40.868030 -0.856187 32.102695 89.846672 -45.181124 71.160640 23.962611 33.365389 87.533929 -32.254554 19.804820 -2.280565 19.783730 -65.747852 -67.239285 106.810307 -83.010076 220.292944 -123.421860 225.933355 96.225276 -113.606933 164.600155 21.200772 45.258380 -47.201508 -64.930906
-2.365774 55.814051 -133.548849 -10.064800 30.171900 -15.080259 20.124326 6.931503 160.386734 19.391245 5.584785 -133.349553 -31.007331 23.963203 24.277545 3.911569 -81.156526 55.343643 -58.271752 -7.548728 -24.280990 -40.788411 74.800311 -24.392856 -17.945436 -37.367541 -59.870679 242.691074 302.040254 195.237406 154.021818 56.808722 286.357839 -68.280493 29.004566 98.076510 -37.839245 2.195565 33.952502 88.184791 -38.464429 62.698705 15.834255 37.519558 95.913908 -35.158583 29.444266 -8.785751 36.850575 -61.671124 -52.429359 92.334711 -80.945405 198.594089 -124.781928 229.457856 108.693841 -107.965954 163.974797 25.529727 38.757977 -55.787401 -66.214845
-4.760864 57.843031 -130.810335 -12.153470 31.172874 -16.166578 24.583323 3.548256 162.488302 16.929920 4.568824 -128.311934 -30.637268 25.923437 23.558996 9.860501 -81.084741 66.649949 -61.374598 -7.464855 -25.981324 -37.969793 75.124445 -24.722032 -13.248589 -21.583003 -66.399903 252.306723 299.081525 207.675918 151.374122 59.716576 295.576737 -65.819391 30.028896 93.606178 -33.912039 2.524837 33.544818 88.097761 -32.065481 54.318958 10.748044 37.897953 101.562693 -36.619270 38.741953 -13.063927 28.029974 -67.528284 -62.744392 79.827289 -75.498124 177.404260 -123.937143 226.331459 119.137023 -104.981954 163.819219 25.145758 33.571022 -63.909827 -71.733290
-7.233586 59.918880 -127.986229 -13.314324 29.166711 -18.944124 27.626802 3.994439 161.878639 18.355790 7.460475 -123.194742 -31.396693 31.305837 22.421117 22.643974 -76.509853 81.736874 -62.488984 -6.372394 -25.896643 -40.718859 80.710693 -27.012336 -31.450098 -38.851472 -61.547743 263.102575 295.390519 221.208722 147.053385 61.702139 304.120484 -64.238790 27.420790 90.565303 -32.934639 2.616155 34.613691 84.552114 -23.996662 47.326545 8.032108 38.096808 103.608628 -36.360840 47.689405 -16.047842 36.433052 -52.715550 -54.543616 65.740557 -65.981697 157.146301 -122.764509 222.291034 131.255677 -103.259264 161.147904 23.542817 25.831618 -71.179123 -82.284006
-9.716732 62.330827 -124.831980 -14.198640 22.896345 -21.198617 27.560764 10.714917 160.640558 13.759421 8.558722 -121.552847 -32.503976 35.472932 21.429015 35.809845 -72.237747 94.167183 -63.063546 -6.029054 -20.133345 -40.018102 81.835666 -24.320456 -29.088403 -33.953458 -64.581706 275.794678 290.688070 239.801166 143.723614 64.758499 309.151683 -67.199725 28.708733 88.120655 -34.789900 -1.712690 31.444849 80.314070 -16.331450 42.888472 7.156681 37.565474 103.557873 -36.027745 55.042343 -17.781175 31.843694 -60.409588 -61.433269 51.280415 -54.672229 134.989905 -122.517092 216.667561 143.217510 -101.706373 157.057441 20.619206 17.024059 -77.098752 -100.221797
-12.215303 65.001973 -121.460693 -14.636377 13.558801 -20.291503 22.024391 18.423508 156.146676 8.708484 9.672885 -123.676626 -31.702473 38.075897 19.963041 55.474441 -63.367196 110.318217 -64.617872 -3.867989 -13.999758 -42.862507 82.908832 -24.514451 -40.497698 -43.106823 -67.364783 295.159822 286.175501 261.449260 143.779485 68.353104 312.079949 -68.802224 25.995345 84.554914 -36.392508 -4.299217 29.077621 73.491613 -8.396253 39.134515 5.328263 36.371673 99.192010 -39.246991 62.748115 -19.585854 29.753113 -47.968299 -56.573695 40.026828 -38.141685 111.549263 -120.143915 207.401372 158.612565 -100.125710 148.832595 17.415123 -126.395246 -86.788065 -244.875997
-14.563290 67.950949 -117.746294 -11.894373 0.679193 -15.667255 13.168209 26.503070 150.926376 3.484911 10.033171 -127.765478 -30.153957 37.289858 18.358560 76.869203 -50.457937 128.398882 -67.389761 0.359035 -3.975499 -44.221445 83.273707 -23.983458 -39.826153 -40.540711 -71.463573 321.751224 278.874247 288.722587 144.586089 73.837302 308.173709 -71.288966 24.897795 80.812162 -35.090916 -5.579205 27.056046 66.248798 -3.561937 36.596837 5.473300 34.779805 92.791071 -40.514917 68.566971 -22.852691 37.029051 -57.223222 -66.090693 28.930444 -20.993852 92.099131 -120.703322 198.587545 177.986547 -97.385609 134.199680 11.128747 -40.189164 -86.088927 -171.084832
-16.768940 70.963363 -114.044712 -5.071825 -10.577203 -8.491801 1.970105 36.110090 145.768914 1.109658 10.789905 -129.843727 -28.928539 35.865542 16.217200 102.281639 -28.166577 146.759428 -68.967282 9.546884 11.696447 -45.176487 89.572842 -24.193286 -48.041502 -45.173990 -73.024769 354.837289 275.255285 318.310967 148.728817 79.604004 302.239259 -74.238398 20.442920 78.607452 -35.598622 -6.519609 26.721507 53.881371 0.019539 32.043522 7.751596 34.835437 84.336546 -43.103483 75.390112 -21.949455 28.878596 -49.231157 -61.544874 16.024460 -3.206298 73.896732 -119.962601 187.655814 197.266218 -88.067230 111.930859 4.267291 -159.240273 -86.852371 -275.419838
-18.871715 74.165729 -110.495671 8.735789 -22.668518 -2.071333 -8.619840 42.980000 145.138364 3.098318 5.895735 -126.279420 -27.198995 34.294042 13.155957 133.555661 -12.092133 168.728144 -47.771450 22.824588 38.286588 -49.357307 93.134315 -29.106073 -47.724922 -41.817256 -78.628796 388.270190 274.670347 353.432810 152.816781 88.355860 293.906756 -75.996072 20.775576 74.385773 -32.496152 -5.208003 24.830859 38.830834 8.396220 28.864342 9.115334 39.743327 81.067146 -43.075401 79.154933 -22.082360 40.362415 -51.320136 -66.269869 1.403020 9.088641 48.598394 -111.760207 158.479267 203.913863 -74.480283 92.064229 0.701466 -274.457327 -85.718874 -374.683223
-21.358201 77.798313 -107.101916 23.382669 -31.472036 6.365343 -23.524326 52.197897 144.207888 9.198151 7.705723 -119.823265 -25.826926 29.042716 10.393259 151.479553 16.635839 182.597266 -44.437224 42.332396 48.933487 -48.710727 98.094446 -28.759382 -52.128390 -43.217663 -84.187710 429.433036 275.851888 391.011883 159.749300 94.175591 286.801856 -76.552152 19.540321 73.700501 -29.517380 -3.074845 23.803541 21.380632 17.979498 27.064768 4.738813 42.552236 83.113642 -42.223410 82.173193 -20.017490 29.825653 -49.577700 -64.108688 -6.145140 18.446227 10.244423 -22.200587 67.093741 178.052035 -63.357607 81.623144 -5.394974 -320.277460 -69.260912 -429.401262
-23.822374 81.711358 -103.957413 32.138082 -31.543525 27.376423 -32.327907 58.442391 134.515398 13.797314 1.633214 -119.799360 -21.695447 21.586447 7.229388 166.129189 42.368329 191.132394 -39.489910 57.914970 50.846285 -43.867170 99.527502 -23.438286 -51.699539 -42.182142 -87.845679 473.058465 278.726633 429.294902 165.759470 98.365318 282.270408 -75.009527 15.874452 76.375237 -25.203027 -0.097353 19.559630 14.374417 16.823492 20.288894 11.857850 39.712800 78.250315 -43.874615 83.323131 -22.303091 30.156880 -49.649724 -67.863844 -14.043835 39.437943 11.611369 27.479639 42.550651 138.069938 -68.475378 79.383744 -4.157644 -302.004956 -61.154481 -433.854627
-26.147434 85.833768 -101.054190 43.246538 -27.949079 46.111153 -36.085464 68.404140 126.340714 22.985142 -0.718509 -116.448291 -17.196185 15.164478 3.880776 176.692172 67.971119 197.219841 -33.364238 75.024587 54.862958 -43.578683 102.299336 -23.313831 -53.813022 -44.633968 -89.999442 517.707575 281.122281 468.146083 171.444469 100.236086 278.218986 -72.621945 14.422938 76.820668 -24.795385 0.971487 17.391962 6.910909 18.866318 14.427077 8.204284 40.119111 73.575515 -44.288453 86.625582 -23.940619 28.122599 -43.999860 -73.616114 -13.037790 46.867867 17.167817 40.266725 31.742573 122.779399 -73.123124 79.090216 -0.268641 -293.460389 -51.037175 -444.796044
-28.183620 89.625748 -98.564795 50.403733 -24.345984 58.064203 -35.980467 72.285518 120.423557 29.906489 -3.289731 -111.499252 -11.258192 8.295848 0.254905 183.605594 91.826504 201.085099 -24.750770 91.720985 57.980745 -43.527976 103.718868 -23.962342 -52.959511 -47.226670 -90.466327 560.522370 283.009216 509.492770 177.880051 100.061090 275.332138 -69.952598 13.253402 78.254242 -26.584080 0.582096 16.300287 1.662843 22.524045 14.269686 9.827203 40.127645 66.812542 -43.814540 88.255552 -21.906785 39.720501 -43.450880 -68.301414 -11.167600 52.479697 17.107606 39.730985 28.057259 117.344385 -56.785561 79.147351 -1.311245 -300.887427 -42.100559 -453.516228
-30.204927 92.848614 -96.615571 55.399227 -20.793340 66.400183 -36.876874 76.377108 115.377195 33.663106 -3.541357 -106.609301 -5.738375 3.155183 -3.331143 187.353482 112.599193 202.231656 -15.711563 108.035677 59.004966 -42.990823 106.496658 -24.296663 -53.179966 -50.797213 -92.456200 603.149471 282.971186 550.008032 186.083094 100.838194 272.876412 -68.975710 11.677194 78.125883 -29.079138 -0.440294 15.650371 -2.379539 22.729562 16.764957 18.344957 41.249114 52.121624 -41.417424 89.929344 -17.713107 38.187024 -38.968838 -66.385436 -7.558251 57.183672 15.615955 39.307124 28.180109 113.301227 -61.989246 79.605759 -1.659404 -285.742986 -51.523665 -453.970845
